# AST/ASF file generated using VICON BodyLanguage
# -----------------------------------------------
:version 1.10
:name VICON
:units
  mass 1.0
  length 0.45
  angle deg
:documentation
   .ast/.asf automatically generated from VICON data using
   VICON BodyBuilder and BodyLanguage model FoxedUp or BRILLIANT.MOD
:root
   order TX TY TZ RX RY RZ
   axis XYZ
   position 0 0 0  
   orientation 0 0 0 
:bonedata
  begin
     id 1 
     name lhipjoint
     direction 0.521452 -0.77106 0.36545 
     length 2.0933 
     axis 0 0 0  XYZ
  end
  begin
     id 2 
     name lfemur
     direction 0.34202 -0.939693 0  
     length 6.83441  
     axis 0 0 20  XYZ
    dof rx ry rz
    limits (-160.0 20.0)
           (-70.0 70.0)
           (-60.0 70.0)
  end
  begin
     id 3 
     name ltibia
     direction 0.34202 -0.939693 0   
     length 7.28749   
     axis 0 0 20   XYZ
    dof rx
    limits (-10.0 170.0)
  end
  begin
     id 4 
     name lfoot
     direction 0.100608 -0.276418 0.955757   
     length 1.52195   
     axis -90 7.62852e-016 20   XYZ
    dof rx rz
    limits (-45.0 90.0)
           (-70.0 20.0)
  end
  begin
     id 5 
     name ltoes
     direction 1.53558e-011 -4.21907e-011 1   
     length 0.770459   
     axis -90 7.62852e-016 20   XYZ
    dof rx
    limits (-90.0 20.0)
  end
  begin
     id 6 
     name rhipjoint
     direction -0.488071 -0.788702 0.373812   
     length 2.04648  
     axis 0 0 0  XYZ 
  end
  begin
     id 7 
     name rfemur
     direction -0.34202 -0.939693 0   
     length 6.92583   
     axis 0 0 -20   XYZ
    dof rx ry rz
    limits (-160.0 20.0)
           (-70.0 70.0)
           (-70.0 60.0)
  end
  begin
     id 8 
     name rtibia
     direction -0.34202 -0.939693 0   
     length 7.41043   
     axis 0 0 -20   XYZ
    dof rx
    limits (-10.0 170.0)
 end
 begin
     id 9 
     name rfoot
     direction -0.0784433 -0.215521 0.973343   
     length 1.67708  
     axis -90 -7.62852e-016 -20   XYZ
    dof rx rz
    limits (-45.0 90.0)
           (-20.0 70.0)
  end
  begin
     id 10 
     name rtoes
     direction -1.53551e-011 -4.21842e-011 1   
     length 0.849787   
     axis -90 -7.62852e-016 -20   XYZ
    dof rx
    limits (-90.0 20.0)
  end
  begin
     id 11 
     name lowerback
     direction -0.0122332 0.997575 -0.0685192   
     length 1.98724   
     axis 0 0 0   XYZ
    dof rx ry rz
    limits (-20.0 45.0)
           (-30.0 30.0)
           (-30.0 30.0)
  end
  begin
     id 12 
     name upperback
     direction 0.0182347 0.999724 -0.0148421   
     length 1.99029   
     axis 0 0 0   XYZ
    dof rx ry rz
    limits (-20.0 45.0)
           (-30.0 30.0)
           (-30.0 30.0)
  end
  begin
     id 13 
     name thorax
     direction 0.0242908 0.99956 0.0170184   
     length 1.99573   
     axis 0 0 0   XYZ
    dof rx ry rz
    limits (-20.0 45.0)
           (-30.0 30.0)
           (-30.0 30.0)
  end
  begin
     id 14 
     name lowerneck
     direction 0.0654488 0.985533 0.156338   
     length 1.4285   
     axis 0 0 0   XYZ
    dof rx ry rz
    limits (-20.0 45.0)
           (-30.0 30.0)
           (-30.0 30.0)
  end
  begin
     id 15 
     name upperneck
     direction -0.02953 0.998556 -0.0448842   
     length 1.44709   
     axis 0 0 0   XYZ
    dof rx ry rz
    limits (-20.0 45.0)
           (-30.0 30.0)
           (-30.0 30.0)
  end
  begin
     id 16
     name head
     direction -0.0155588 0.999386 -0.0314063  
     length 1.44689  
     axis 0 0 0   XYZ
    dof rx ry rz
    limits (-20.0 45.0)
           (-30.0 30.0)
           (-30.0 30.0)
  end
  begin
     id 17 
     name lclavicle
     direction 0.968229 0.236071 -0.0824755  
     length 3.60593  
     axis 0 0 0   XYZ
    dof ry rz
    limits (-20.0 10.0)
           (0.0 20.0)
  end
  begin
     id 18 
     name lhumerus
     direction 1 -4.48968e-011 7.8138e-029   
     length 5.06035   
     axis 180 -30 -90   XYZ
    dof rx ry rz
    limits (-60.0 90.0)
           (-90.0 90.0)
           (-90.0 90.0)
  end
  begin
     id 19
     name lradius
     direction 1 -4.48967e-011 9.02887e-028   
     length 3.1478   
     axis 180 -30 -90   XYZ
    dof rx
    limits (-10.0 170.0)
  end
  begin
     id 20
     name lwrist
     direction 1 -4.48961e-011 7.20928e-028   
     length 1.5739   
     axis -5.52449e-016 90 90   XYZ
    dof ry
    limits (-180.0 0.0)
 end
  begin
     id 21 
     name lhand
     direction 1 -4.48972e-011 1.44186e-027   
     length 0.606747   
     axis -9.20027e-016 90 90   XYZ
    dof rx rz
    limits (-90.0 90.0)
           (-45.0 45.0)
  end
  begin
     id 22 
     name lfingers
     direction 1 -4.48943e-011 2.88371e-027   
     length 0.489175   
     axis -1.84005e-015 90 90   XYZ
    dof rx
    limits (0.0 90.0)
  end
  begin
     id 23
     name lthumb
     direction 0.707107 -6.34917e-011 0.707107   
     length 0.70236   
     axis -90 45 2.85299e-015   XYZ
    dof rx rz
    limits (-45.0 45.0)
           (-45.0 45.0)
  end
  begin
     id 24 
     name rclavicle
     direction -0.978165 0.207816 0.0022268   
     length 3.35425  
     axis 0 0 0   XYZ 
    dof ry rz
    limits (-10.0 20.0)
           (-20.0 0.0)
  end
  begin
     id 25 
     name rhumerus
     direction -1 -4.48964e-011 -4.02159e-027  
     length 5.12273   
     axis 180 30 90   XYZ
    dof rx ry rz
    limits (-90.0 60.0)
           (-90.0 90.0)
           (-90.0 90.0)
  end
  begin
     id 26 
     name rradius
     direction -1 -4.48966e-011 1.62746e-027   
     length 3.422   
     axis 180 30 90   XYZ
    dof rx
    limits (-10.0 170.0)
  end
  begin
     id 27 
     name rwrist
     direction -1 -4.4896e-011 7.20928e-028   
     length 1.711   
     axis -5.52449e-016 -90 -90   XYZ
    dof ry
    limits (-180.0 0.0)
  end
  begin
     id 28
     name rhand
     direction -1 -4.48979e-011 1.44186e-027   
     length 0.704599   
     axis -9.20027e-016 -90 -90   XYZ
    dof rx rz
    limits (-90.0 90.0)
           (-45.0 45.0)
  end
  begin
     id 29
     name rfingers
     direction -1 -4.48962e-011 2.88371e-027   
     length 0.568066   
     axis -1.84005e-015 -90 -90   XYZ
    dof rx
    limits (0.0 90.0)
  end
  begin
     id 30
     name rthumb
     direction -0.707107 -6.34949e-011 0.707107   
     length 0.815633   
     axis -90 -45 -2.85299e-015   XYZ
    dof rx rz
    limits (-45.0 45.0)
           (-45.0 45.0)
  end
:hierarchy
  begin
    root lhipjoint rhipjoint lowerback
    lhipjoint lfemur
    lfemur ltibia
    ltibia lfoot
    lfoot ltoes
    rhipjoint rfemur
    rfemur rtibia
    rtibia rfoot
    rfoot rtoes
    lowerback upperback
    upperback thorax
    thorax lowerneck lclavicle rclavicle
    lowerneck upperneck
    upperneck head
    lclavicle lhumerus
    lhumerus lradius
    lradius lwrist
    lwrist lhand lthumb
    lhand lfingers
    rclavicle rhumerus
    rhumerus rradius
    rradius rwrist
    rwrist rhand rthumb
    rhand rfingers
  end

#!OML:ASF Z:\Project 1\Capture day 1\Session 1\Male1.ASF
:FULLY-SPECIFIED
:DEGREES
709
root 13.2122 16.4561 -4.00192 -163.446 -19.3081 176.657
lowerback -2.97743 -2.89967 -0.862798
upperback -0.0178288 -3.85253 0.766388
thorax 1.75741 -1.93564 1.09327
lowerneck -8.10503 -6.43999 -9.53941
upperneck -4.72099 -8.09621 7.56853
head 0.660121 -4.03891 3.87593
rclavicle -2.55438e-014 1.98785e-015
rhumerus 77.4705 -1.2954 -68.4158
rradius 53.8761
rwrist 24.4276
rhand -57.0961 53.6846
rfingers 7.12502
rthumb -29.3833 25.9874
lclavicle -2.55438e-014 1.98785e-015
lhumerus 88.7475 -7.93498 55.4655
lradius 34.2527
lwrist -19.8687
lhand -40.884 61.0925
lfingers 7.12502
lthumb -13.8198 629.387
rfemur -18.5952 -8.22809 24.7878
rtibia 21.047
rfoot -17.6139 -13.4843
rtoes 15.3623
lfemur 5.02519 -3.61426 -10.9925
ltibia 14.5301
lfoot 19.1803 17.8991
ltoes 55.6652
710
root 13.2186 16.4514 -4.01003 -163.446 -19.4026 176.604
lowerback -2.98673 -2.95065 -1.12808
upperback -0.171532 -3.91547 0.910141
thorax 1.63445 -1.96936 1.38903
lowerneck -8.10256 -6.33645 -8.98893
upperneck -4.64044 -8.00269 6.82847
head 0.611516 -4.00072 3.51803
rclavicle -2.3059e-014 1.15295e-014
rhumerus 77.7575 -0.654787 -69.4625
rradius 52.9331
rwrist 25.1279
rhand -57.442 52.6713
rfingers 7.12502
rthumb -29.7135 25.0326
lclavicle -2.3059e-014 1.15295e-014
lhumerus 88.2641 -7.8121 55.8843
lradius 34.1509
lwrist -20.493
lhand -40.8445 59.4934
lfingers 7.12502
lthumb -13.7817 809.017
rfemur -18.5642 -8.32591 24.7646
rtibia 21.0708
rfoot -17.8028 -13.3777
rtoes 15.8833
lfemur 5.03507 -3.61151 -10.9702
ltibia 14.5337
lfoot 19.3818 17.6132
ltoes 55.3452
711
root 13.2216 16.4468 -4.01547 -163.446 -19.586 176.554
lowerback -2.97311 -3.07019 -1.29018
upperback -0.360114 -4.07397 1.03475
thorax 1.45906 -2.04911 1.60607
lowerneck -8.12248 -6.19317 -8.43185
upperneck -4.44493 -7.85317 6.00097
head 0.597294 -3.93353 3.13471
rclavicle 5.60573e-014 -3.97569e-015
rhumerus 78.0718 -0.252019 -69.1052
rradius 51.7346
rwrist 24.4275
rhand -57.8298 52.023
rfingers 7.12502
rthumb -30.0835 24.4509
lclavicle 5.60573e-014 -3.97569e-015
lhumerus 87.7365 -7.6433 55.6184
lradius 34.1825
lwrist -20.14
lhand -41.2491 59.378
lfingers 7.12502
lthumb -14.1717 808.875
rfemur -18.5359 -8.44899 24.7549
rtibia 21.11
rfoot -17.9976 -13.3505
rtoes 16.3222
lfemur 5.0469 -3.73083 -10.9444
ltibia 14.5007
lfoot 19.4587 17.4823
ltoes 55.1535
712
root 13.22 16.4415 -4.02103 -163.468 -19.7472 176.46
lowerback -2.98656 -3.19251 -1.3591
upperback -0.511223 -4.23743 1.07864
thorax 1.32615 -2.13039 1.6861
lowerneck -8.32337 -6.17117 -7.99602
upperneck -4.03356 -7.83516 5.54682
head 0.721105 -3.92484 2.88926
rclavicle 6.61953e-014 -1.98785e-014
rhumerus 78.4274 0.267651 -69.277
rradius 50.3908
rwrist 24.1437
rhand -57.8936 53.4319
rfingers 7.12502
rthumb -30.1444 25.8709
lclavicle 6.61953e-014 -1.98785e-014
lhumerus 87.2722 -7.46321 55.1893
lradius 34.3206
lwrist -19.0774
lhand -41.6955 58.8665
lfingers 7.12502
lthumb -14.6018 808.332
rfemur -18.479 -8.84549 24.7279
rtibia 21.1382
rfoot -18.1109 -13.3357
rtoes 15.5054
lfemur 5.11454 -4.05545 -11.0126
ltibia 14.4724
lfoot 19.1434 17.854
ltoes 55.423
713
root 13.2194 16.4354 -4.02999 -163.537 -19.754 176.477
lowerback -3.16125 -3.18538 -1.23647
upperback -0.599715 -4.23104 1.0092
thorax 1.31859 -2.12656 1.54011
lowerneck -8.31486 -6.18712 -7.88739
upperneck -3.68326 -7.84824 5.54674
head 0.830118 -3.92425 2.86374
rclavicle -2.68359e-015 -3.97569e-016
rhumerus 78.757 0.406921 -70.4952
rradius 49.1076
rwrist 26.2091
rhand -56.8946 53.9321
rfingers 7.12502
rthumb -29.1909 26.2014
lclavicle -2.68359e-015 -3.97569e-016
lhumerus 86.9864 -7.44441 54.8935
lradius 34.4273
lwrist -18.1003
lhand -41.916 57.4132
lfingers 7.12502
lthumb -14.8142 806.864
rfemur -18.3754 -9.12836 24.7569
rtibia 21.1099
rfoot -18.3317 -13.1624
rtoes 15.3089
lfemur 5.22081 -4.28234 -11.0322
ltibia 14.5062
lfoot 18.9563 18.0947
ltoes 55.2383
714
root 13.2204 16.4303 -4.03868 -163.731 -19.7457 176.667
lowerback -3.3023 -3.17319 -0.923872
upperback -0.633267 -4.22458 0.944067
thorax 1.3353 -2.12216 1.29331
lowerneck -8.18928 -6.0553 -7.94039
upperneck -3.5289 -7.66459 5.76788
head 0.86046 -3.82514 2.95914
rclavicle -7.76254e-014 5.56597e-015
rhumerus 78.6707 0.358912 -68.9888
rradius 48.5771
rwrist 24.0647
rhand -56.8772 55.0171
rfingers 7.12502
rthumb -29.1743 27.2835
lclavicle -7.76254e-014 5.56597e-015
lhumerus 86.7166 -7.27544 54.4308
lradius 34.5731
lwrist -17.0748
lhand -42.0053 56.0196
lfingers 7.12502
lthumb -14.9003 805.464
rfemur -18.1781 -9.28208 24.9451
rtibia 21.0514
rfoot -18.313 -13.1433
rtoes 14.6516
lfemur 5.40971 -4.38651 -10.8793
ltibia 14.5596
lfoot 18.9583 18.0116
ltoes 54.6614
715
root 13.2201 16.4251 -4.04379 -163.935 -19.7968 176.899
lowerback -3.38797 -3.23929 -0.612471
upperback -0.654117 -4.32431 0.944166
thorax 1.34187 -2.171 1.11158
lowerneck -8.39083 -5.95002 -7.49629
upperneck -3.21212 -7.54227 5.79669
head 0.971942 -3.76074 2.88378
rclavicle -4.72114e-014 3.18055e-015
rhumerus 78.8644 0.805619 -68.7594
rradius 47.8693
rwrist 23.016
rhand -56.6086 56.4805
rfingers 7.12502
rthumb -28.9177 28.7026
lclavicle -4.72114e-014 3.18055e-015
lhumerus 86.4127 -6.88491 53.8363
lradius 34.8343
lwrist -15.6142
lhand -41.9973 54.5611
lfingers 7.12502
lthumb -14.8925 804.006
rfemur -18.0051 -9.66067 25.2405
rtibia 20.9813
rfoot -18.1431 -13.1283
rtoes 13.1723
lfemur 5.55624 -4.4641 -10.6376
ltibia 14.6372
lfoot 18.8641 17.9445
ltoes 54.8762
716
root 13.2187 16.4212 -4.05019 -164.145 -19.8169 177.124
lowerback -3.4513 -3.27224 -0.440127
upperback -0.684779 -4.3775 1.0419
thorax 1.34193 -2.19774 1.11047
lowerneck -8.73453 -5.97897 -7.37181
upperneck -2.60704 -7.55893 5.85455
head 1.22891 -3.75621 2.8631
rclavicle -4.44284e-014 -2.78299e-015
rhumerus 79.2805 1.31039 -69.7904
rradius 46.7608
rwrist 24.3625
rhand -55.6663 57.6757
rfingers 7.12502
rthumb -28.0173 29.7472
lclavicle -4.44284e-014 -2.78299e-015
lhumerus 86.1027 -6.51388 53.4473
lradius 35.1824
lwrist -13.8153
lhand -41.8157 52.4298
lfingers 7.12502
lthumb -14.7176 801.887
rfemur -17.8049 -10.0997 25.5164
rtibia 20.9148
rfoot -18.3317 -12.7688
rtoes 13.2569
lfemur 5.70222 -4.56565 -10.4374
ltibia 14.7484
lfoot 18.7182 17.9805
ltoes 55.0857
717
root 13.2155 16.414 -4.05774 -164.38 -19.7436 177.262
lowerback -3.48488 -3.21856 -0.370872
upperback -0.737018 -4.31228 1.15037
thorax 1.30881 -2.16594 1.18581
lowerneck -8.81628 -6.04571 -7.78889
upperneck -2.07239 -7.59102 6.11266
head 1.45601 -3.75453 3.01815
rclavicle 2.3556e-014 -1.19271e-015
rhumerus 79.5791 1.60536 -69.9951
rradius 45.622
rwrist 25.2431
rhand -55.4266 58.69
rfingers 7.12502
rthumb -27.7881 30.7242
lclavicle 2.3556e-014 -1.19271e-015
lhumerus 85.7844 -6.29843 53.4837
lradius 35.4766
lwrist -12.3253
lhand -41.2879 49.8175
lfingers 7.12502
lthumb -14.209 799.311
rfemur -17.616 -10.5926 25.6928
rtibia 20.9558
rfoot -18.3978 -12.6644
rtoes 11.9187
lfemur 6.00758 -4.67121 -10.3958
ltibia 14.7102
lfoot 18.5206 18.2561
ltoes 54.9756
